<svg width="104" height="48" viewBox="0 0 104 48" fill="none" xmlns="http://www.w3.org/2000/svg">
<g clip-path="url(#clip0_462_3730)">
<path d="M99.1262 22.4279C100.066 26.5153 100.484 32.5939 96.9327 35.5284C95.7837 36.4716 93.9036 36.8908 92.5457 36.262C90.3522 35.3188 89.3076 32.8035 88.7854 30.6026C87.2186 25.1528 89.3076 19.4934 92.1279 14.6725C92.7546 13.6244 93.3813 12.5764 94.1125 11.6332C96.5149 14.8821 98.1862 18.655 99.1262 22.4279ZM102.155 -1.29519e-05C100.589 0.209594 99.0218 0.524005 97.455 0.733612C96.306 0.943219 96.8283 2.72488 97.9773 2.51527C98.604 2.41047 99.2307 2.30566 99.8574 2.20086C97.9773 4.29693 95.9926 6.4978 94.1125 8.69868C92.6501 7.12663 91.0833 5.65938 89.4121 4.40173C85.5473 1.67684 80.3246 -1.29668e-05 75.5198 0.419201C71.4461 1.04802 67.4769 2.93448 64.2388 5.34497C60.7919 7.96505 58.285 11.4236 57.0315 15.5109C56.7182 16.6637 58.4939 17.083 58.8073 16.0349C60.3741 11.0044 64.0299 7.12663 68.7303 4.71614C72.5951 2.72488 76.4599 1.99125 80.7425 2.82968C85.6518 3.77291 89.8299 6.4978 92.9635 10.2707C88.5765 16.1397 85.3384 22.6375 86.5918 30.1834C87.323 34.4803 90.2477 39.1965 95.2615 38.3581C99.6485 37.5196 101.215 32.8035 101.529 28.9258C101.946 22.3231 99.4396 15.4061 95.2615 10.0611C97.0372 7.86025 99.0218 5.76418 100.902 3.66811C100.797 4.29693 100.589 4.82095 100.38 5.44977C99.9619 6.60261 101.842 7.02182 102.155 5.97379C102.678 4.40173 102.991 2.72488 103.304 1.15283C103.409 0.419201 102.887 -0.104816 102.155 -1.29519e-05Z" fill="#53905B"/>
<path fill-rule="evenodd" clip-rule="evenodd" d="M7.41619 21.6943C4.80485 21.6943 2.82024 22.8471 1.46235 25.2576V12.4716C1.46235 12.0524 1.25344 11.738 0.731173 11.738C0.208907 11.738 0 11.9476 0 12.4716V37.7292C0 38.1485 0.208907 38.4629 0.731173 38.4629C1.25344 38.4629 1.46235 38.2533 1.46235 37.7292V31.1266V30.4978C1.35789 28.5065 1.77571 26.7249 2.71579 25.3624C3.76032 23.7904 5.32712 23.0568 7.41619 23.0568C8.98299 23.0568 10.2364 23.6856 11.1765 24.9432C12.0121 25.9913 12.5344 27.3537 12.5344 28.9258V37.7292C12.5344 38.1485 12.7433 38.4629 13.2656 38.4629C13.7878 38.4629 13.9967 38.2533 13.9967 37.7292V29.0306C13.9967 27.0393 13.37 25.3624 12.221 24C11.0721 22.5327 9.4008 21.6943 7.41619 21.6943Z" fill="#262725"/>
<path d="M27.889 34.8995C26.6356 36.3668 25.0688 37.1004 23.0842 37.1004C21.0996 37.1004 19.6372 36.3668 18.2793 34.8995C17.0259 33.4323 16.3992 31.7554 16.3992 29.869C16.3992 27.9825 17.0259 26.3056 18.2793 24.9432C19.5328 23.476 21.0996 22.8471 23.0842 22.8471C25.0688 22.8471 26.5311 23.5808 27.889 24.9432C29.1425 26.4104 29.7692 27.9825 29.7692 29.869C29.7692 31.7554 29.1425 33.4323 27.889 34.8995ZM23.0842 21.3799C20.7862 21.3799 18.906 22.2183 17.3392 24C15.7724 25.6768 15.0413 27.6681 15.0413 29.9738C15.0413 32.2794 15.7724 34.2707 17.3392 35.9476C18.906 37.6244 20.7862 38.4629 23.0842 38.4629C25.3821 38.4629 27.2623 37.6244 28.8291 35.9476C30.3959 34.2707 31.1271 32.2794 31.1271 29.9738C31.1271 27.6681 30.3959 25.6768 28.8291 24C27.3668 22.2183 25.3821 21.3799 23.0842 21.3799Z" fill="#262725"/>
<path d="M45.2283 35.2139C43.9749 36.6812 42.4081 37.4148 40.5279 37.4148C38.6477 37.4148 37.0809 36.6812 35.8275 35.2139C34.5741 33.7467 33.9473 32.0698 33.9473 30.0786C33.9473 28.0873 34.5741 26.4105 35.8275 24.9432C37.0809 23.476 38.6477 22.7423 40.5279 22.7423C42.4081 22.7423 43.9749 23.476 45.2283 24.9432C46.4817 26.4105 47.1085 28.0873 47.1085 30.0786C47.1085 32.0698 46.4817 33.7467 45.2283 35.2139ZM40.5279 21.3799C37.4988 21.3799 35.2008 22.8471 33.634 25.7816V22.3231C33.634 21.9039 33.4251 21.5895 32.9028 21.5895C32.485 21.5895 32.1716 21.7991 32.1716 22.3231V47.2663C32.1716 47.6856 32.3805 48 32.9028 48C33.3206 48 33.634 47.7904 33.634 47.2663V34.4803C35.2008 37.4148 37.4988 38.8821 40.5279 38.8821C42.7214 38.8821 44.6016 38.0436 46.1684 36.262C47.6307 34.5851 48.3619 32.4891 48.3619 30.1834C48.3619 27.8777 47.6307 25.7816 46.1684 24.1048C44.6016 22.2183 42.7214 21.3799 40.5279 21.3799Z" fill="#262725"/>
<path d="M62.4632 35.2139C61.2097 36.6812 59.6429 37.4148 57.7628 37.4148C55.8826 37.4148 54.3158 36.6812 53.0624 35.2139C51.8089 33.7467 51.1822 32.0698 51.1822 30.0786C51.1822 28.0873 51.8089 26.4105 53.0624 24.9432C54.3158 23.476 55.8826 22.7423 57.7628 22.7423C59.6429 22.7423 61.2097 23.476 62.4632 24.9432C63.7166 26.4105 64.3433 28.0873 64.3433 30.0786C64.3433 32.0698 63.6121 33.7467 62.4632 35.2139ZM57.7628 21.3799C54.7336 21.3799 52.4356 22.8471 50.8688 25.7816V22.3231C50.8688 21.9039 50.6599 21.5895 50.1377 21.5895C49.6154 21.5895 49.4065 21.7991 49.4065 22.3231V47.2663C49.4065 47.6856 49.6154 48 50.1377 48C50.6599 48 50.8688 47.7904 50.8688 47.2663V34.4803C52.4356 37.4148 54.7336 38.8821 57.7628 38.8821C59.9563 38.8821 61.8364 38.0436 63.4032 36.262C64.8656 34.5851 65.5968 32.4891 65.5968 30.1834C65.5968 27.8777 64.8656 25.7816 63.4032 24.1048C61.8364 22.2183 59.9563 21.3799 57.7628 21.3799Z" fill="#262725"/>
<path d="M79.28 34.8995C78.0265 36.3668 76.4597 36.9956 74.5796 36.9956C72.6994 36.9956 71.1326 36.262 69.8792 34.8995C68.6257 33.4323 67.999 31.8602 67.999 29.9738C67.999 28.0873 68.6257 26.4105 69.8792 25.048C71.1326 23.5808 72.6994 22.9519 74.5796 22.9519C76.4597 22.9519 78.0265 23.6856 79.28 25.048C80.5334 26.5153 81.1601 28.0873 81.1601 29.9738C81.1601 31.8602 80.5334 33.4323 79.28 34.8995ZM82.2047 21.6943C81.7868 21.6943 81.4735 21.9039 81.4735 22.4279V25.6768C79.9067 22.8471 77.6087 21.3799 74.5796 21.3799C72.2816 21.3799 70.4014 22.2183 68.9391 23.8952C67.4767 25.572 66.6411 27.5633 66.6411 29.869C66.6411 32.1746 67.3723 34.1659 68.9391 35.8428C70.4014 37.5196 72.2816 38.358 74.5796 38.358C77.6087 38.358 79.9067 36.8908 81.4735 34.0611V37.2052C81.4735 37.6244 81.6824 37.9388 82.2047 37.9388C82.6225 37.9388 82.9358 37.7292 82.9358 37.2052V22.3231C82.8314 21.9039 82.6225 21.6943 82.2047 21.6943Z" fill="#262725"/>
</g>
<defs>
<clipPath id="clip0_462_3730">
<rect width="103.304" height="48" fill="white"/>
</clipPath>
</defs>
</svg>
