<?xml version="1.0" encoding="utf-8"?>
<!-- Generator: Adobe Illustrator 28.2.0, SVG Export Plug-In . SVG Version: 6.00 Build 0)  -->
<svg version="1.1" id="Layer_1" xmlns="http://www.w3.org/2000/svg" xmlns:xlink="http://www.w3.org/1999/xlink" x="0px" y="0px"
	 viewBox="0 0 102.5 38.4" style="enable-background:new 0 0 102.5 38.4;" xml:space="preserve">
<style type="text/css">
	.st0{clip-path:url(#SVGID_00000137112627871143977860000010394875165026354573_);}
	.st1{fill:#53905B;}
	.st2{fill:#262725;}
</style>
<g>
	<defs>
		<rect id="SVGID_1_" x="-1" width="103.3" height="48"/>
	</defs>
	<clipPath id="SVGID_00000099653504167461998460000014165655948594534311_">
		<use xlink:href="#SVGID_1_"  style="overflow:visible;"/>
	</clipPath>
	<g style="clip-path:url(#SVGID_00000099653504167461998460000014165655948594534311_);">
		<path class="st1" d="M98.2,22.4c0.9,4.1,1.4,10.2-2.2,13.1c-1.1,0.9-3,1.4-4.4,0.7c-2.2-0.9-3.2-3.5-3.8-5.7
			c-1.6-5.4,0.5-11.1,3.3-15.9c0.6-1,1.3-2.1,2-3C95.6,14.9,97.2,18.7,98.2,22.4z M101.2,0c-1.6,0.2-3.1,0.5-4.7,0.7
			c-1.1,0.2-0.6,2,0.5,1.8c0.6-0.1,1.3-0.2,1.9-0.3C97,4.3,95,6.5,93.2,8.7c-1.5-1.6-3-3-4.7-4.3c-3.9-2.7-9.1-4.4-13.9-4
			c-4.1,0.6-8,2.5-11.3,4.9c-3.4,2.6-6,6.1-7.2,10.2c-0.3,1.2,1.5,1.6,1.8,0.5c1.6-5,5.2-8.9,9.9-11.3c3.9-2,7.7-2.7,12-1.9
			c4.9,0.9,9.1,3.7,12.2,7.4c-4.4,5.9-7.6,12.4-6.4,19.9c0.7,4.3,3.7,9,8.7,8.2c4.4-0.8,6-5.6,6.3-9.4c0.4-6.6-2.1-13.5-6.3-18.9
			c1.8-2.2,3.8-4.3,5.6-6.4c-0.1,0.6-0.3,1.2-0.5,1.8C99,6.6,100.9,7,101.2,6c0.5-1.6,0.8-3.2,1.1-4.8C102.5,0.4,101.9-0.1,101.2,0z
			"/>
	</g>
</g>
<g>
	<path class="st2" d="M3,36.4c0,0.9-0.5,1.4-1.4,1.4c-0.8,0-1.4-0.5-1.4-1.4V20.1c0-0.9,0.6-1.4,1.4-1.4c0.9,0,1.4,0.5,1.4,1.4V36.4
		z"/>
	<path class="st2" d="M19.1,36.4c0,0.9-0.5,1.4-1.4,1.4c-0.8,0-1.4-0.5-1.4-1.4v-0.1c-0.9,0.9-2.5,1.8-4.2,1.8
		c-4.2,0-7.2-3.2-7.2-7.1c0-3.9,3-7.2,7.2-7.2c1.8,0,3.2,0.7,4.2,1.7c0-0.8,0.6-1.4,1.4-1.4c0.9,0,1.4,0.6,1.4,1.4V36.4z M7.7,30.9
		c0,2.4,1.9,4.3,4.4,4.3c2.4,0,4.1-1.9,4.1-4.3c0-2.4-1.8-4.4-4.1-4.4C9.7,26.6,7.7,28.5,7.7,30.9z"/>
	<path class="st2" d="M24,25.3c0.9-0.9,2.1-1.5,3.6-1.5c3.5,0,5.8,2.7,5.8,6.2v6.4c0,0.9-0.5,1.4-1.4,1.4c-0.8,0-1.4-0.5-1.4-1.4
		v-6.4c0-1.9-1.2-3.4-3.1-3.4c-2,0-3.3,1.5-3.3,3.4v6.4c0,0.9-0.5,1.4-1.4,1.4c-0.8,0-1.4-0.5-1.4-1.4V25.3c0-0.8,0.5-1.2,1.2-1.2
		C23.4,24.1,23.8,24.5,24,25.3z"/>
	<path class="st2" d="M46.6,20.1c0-0.8,0.5-1.4,1.4-1.4c0.9,0,1.4,0.6,1.4,1.4v16.5c0,0.7-0.5,1.2-1.2,1.2c-0.8,0-1.4-0.5-1.6-1.6
		c-0.9,1-2.5,1.9-4.2,1.9c-3.7,0-7.2-3.2-7.2-7.1c0-3.9,3.4-7.2,7.2-7.2c1.8,0,3.3,0.7,4.1,1.8V20.1z M38.1,30.9
		c0,2.4,1.9,4.3,4.4,4.3c2.4,0,4.1-1.9,4.1-4.3c0-2.4-1.8-4.4-4.1-4.4C40,26.6,38.1,28.5,38.1,30.9z"/>
	<path class="st2" d="M65.6,30.7c0,0.9-0.5,1.4-1.4,1.4h-9.9c0.3,1.8,2.2,3.2,4.1,3.2c1.2,0,2.2-0.4,3-1.2c0.3-0.3,0.7-0.5,1.1-0.5
		c0.7,0,1.3,0.6,1.3,1.4c0,0.4-0.1,0.8-0.4,1c-1.3,1.4-3,2.1-5,2.1c-3.9,0-7.2-3.2-7.2-7.1c0-3.9,3.2-7.2,7.2-7.2
		C62.4,23.8,65.6,27,65.6,30.7z M54.4,29.8h8.2c-0.3-1.8-2.2-3.2-4.1-3.2C56.5,26.6,54.7,28,54.4,29.8z"/>
	<path class="st2" d="M78.3,20.1c0-0.8,0.5-1.4,1.4-1.4c0.9,0,1.4,0.6,1.4,1.4v16.5c0,0.7-0.5,1.2-1.2,1.2c-0.8,0-1.4-0.5-1.6-1.6
		c-0.9,1-2.5,1.9-4.2,1.9c-3.7,0-7.2-3.2-7.2-7.1c0-3.9,3.4-7.2,7.2-7.2c1.8,0,3.3,0.7,4.1,1.8V20.1z M69.8,30.9
		c0,2.4,1.9,4.3,4.4,4.3c2.4,0,4.1-1.9,4.1-4.3c0-2.4-1.8-4.4-4.1-4.4C71.7,26.6,69.8,28.5,69.8,30.9z"/>
</g>
</svg>
