<?xml version="1.0" encoding="utf-8"?>
<!-- Generator: Adobe Illustrator 28.2.0, SVG Export Plug-In . SVG Version: 6.00 Build 0)  -->
<svg version="1.1" id="Layer_1" xmlns="http://www.w3.org/2000/svg" xmlns:xlink="http://www.w3.org/1999/xlink" x="0px" y="0px"
	 viewBox="0 0 103 38.4" style="enable-background:new 0 0 103 38.4;" xml:space="preserve">
<style type="text/css">
	.st0{clip-path:url(#SVGID_00000157290933821368073850000007256634253356540292_);}
	.st1{fill:#1D9E75;}
	.st2{fill:#262725;}
</style>
<g>
	<g>
		<defs>
			<rect id="SVGID_1_" x="-1" width="103.3" height="48"/>
		</defs>
		<clipPath id="SVGID_00000053534804499477437330000006767620151591223698_">
			<use xlink:href="#SVGID_1_"  style="overflow:visible;"/>
		</clipPath>
		<g style="clip-path:url(#SVGID_00000053534804499477437330000006767620151591223698_);">
			<path class="st1" d="M98.2,22.4c0.9,4.1,1.4,10.2-2.2,13.1c-1.1,0.9-3,1.4-4.4,0.7c-2.2-0.9-3.2-3.5-3.8-5.7
				c-1.6-5.4,0.5-11.1,3.3-15.9c0.6-1,1.3-2.1,2-3C95.6,14.9,97.2,18.7,98.2,22.4z M101.2,0c-1.6,0.2-3.1,0.5-4.7,0.7
				c-1.1,0.2-0.6,2,0.5,1.8c0.6-0.1,1.3-0.2,1.9-0.3C97,4.3,95,6.5,93.2,8.7c-1.5-1.6-3-3-4.7-4.3c-3.9-2.7-9.1-4.4-13.9-4
				c-4.1,0.6-8,2.5-11.3,4.9c-3.4,2.6-6,6.1-7.2,10.2c-0.3,1.2,1.5,1.6,1.8,0.5c1.6-5,5.2-8.9,9.9-11.3c3.9-2,7.7-2.7,12-1.9
				c4.9,0.9,9.1,3.7,12.2,7.4c-4.4,5.9-7.6,12.4-6.4,19.9c0.7,4.3,3.7,9,8.7,8.2c4.4-0.8,6-5.6,6.3-9.4c0.4-6.6-2.1-13.5-6.3-18.9
				c1.8-2.2,3.8-4.3,5.6-6.4c-0.1,0.6-0.3,1.2-0.5,1.8C99,6.6,100.9,7,101.2,6c0.5-1.6,0.8-3.2,1.1-4.8C102.5,0.4,101.9-0.1,101.2,0
				z"/>
		</g>
	</g>
</g>
<g>
	<path class="st2" d="M0.2,38.1V19h3.2v19.1H0.2z"/>
	<path class="st2" d="M12,38.4c-1.1,0-2.1-0.3-3-0.8s-1.5-1.3-2-2.4c-0.5-1-0.7-2.2-0.7-3.7c0-1.4,0.2-2.6,0.7-3.7
		c0.5-1,1.2-1.8,2-2.3c0.9-0.5,1.9-0.8,3-0.8s2.1,0.3,2.9,0.8s1.4,1.3,1.7,2.2h-0.3l0.3-2.8h3.1c-0.1,0.5-0.1,1.1-0.1,1.6
		c0,0.6-0.1,1.1-0.1,1.6v9.8h-3.2v-2.7h0.3c-0.3,0.9-0.8,1.6-1.7,2.2C14.1,38.1,13.1,38.4,12,38.4z M12.9,35.9c1,0,1.8-0.4,2.5-1.1
		c0.6-0.7,0.9-1.8,0.9-3.3S16,29,15.4,28.3s-1.4-1.1-2.5-1.1c-1,0-1.8,0.4-2.5,1.1c-0.6,0.7-0.9,1.8-0.9,3.2s0.3,2.5,0.9,3.3
		C11.1,35.5,11.9,35.9,12.9,35.9z"/>
	<path class="st2" d="M23.1,38.1v-9.8c0-0.5,0-1.1-0.1-1.6s-0.1-1.1-0.2-1.6H26l0.3,2.6H26c0.4-0.9,1-1.6,1.8-2.1s1.8-0.7,2.8-0.7
		c1.5,0,2.7,0.4,3.5,1.3s1.2,2.2,1.2,4.1v8H32v-7.9c0-1.1-0.2-1.8-0.6-2.3s-1-0.7-1.8-0.7c-1,0-1.8,0.3-2.4,0.9s-0.9,1.5-0.9,2.5
		v7.4L23.1,38.1L23.1,38.1z"/>
	<path class="st2" d="M43.8,38.4c-1.1,0-2.2-0.3-3-0.8c-0.9-0.5-1.6-1.3-2-2.4c-0.5-1-0.7-2.2-0.7-3.7c0-1.4,0.2-2.6,0.7-3.7
		c0.5-1,1.2-1.8,2-2.3c0.9-0.5,1.9-0.8,3-0.8s2.1,0.3,2.9,0.8c0.8,0.5,1.4,1.2,1.7,2.1h-0.3V19h3.2v19.1h-3.2v-2.8h0.3
		c-0.3,0.9-0.8,1.7-1.7,2.2S44.9,38.4,43.8,38.4z M44.7,35.9c1,0,1.8-0.4,2.5-1.1c0.6-0.7,0.9-1.8,0.9-3.3s-0.3-2.5-0.9-3.2
		c-0.6-0.7-1.4-1.1-2.5-1.1c-1,0-1.8,0.4-2.5,1.1c-0.6,0.7-0.9,1.8-0.9,3.2s0.3,2.5,0.9,3.3C42.9,35.5,43.7,35.9,44.7,35.9z"/>
	<path class="st2" d="M61.2,38.4c-2.2,0-3.9-0.6-5.2-1.8c-1.2-1.2-1.9-2.9-1.9-5c0-1.4,0.3-2.6,0.8-3.6s1.3-1.8,2.2-2.4
		c1-0.6,2.1-0.9,3.4-0.9c1.3,0,2.3,0.3,3.2,0.8c0.8,0.5,1.5,1.3,1.9,2.3s0.7,2.1,0.7,3.4v0.9h-9.6v-1.7H64l-0.4,0.4
		c0-1.2-0.3-2.1-0.8-2.8c-0.5-0.6-1.3-1-2.2-1c-1.1,0-1.9,0.4-2.5,1.1c-0.6,0.8-0.9,1.8-0.9,3.2v0.3c0,1.4,0.4,2.5,1.1,3.2
		s1.7,1.1,3,1.1c0.7,0,1.4-0.1,2.1-0.3c0.6-0.2,1.3-0.5,1.9-1l1,2.2c-0.6,0.5-1.4,0.9-2.2,1.2C63.1,38.2,62.2,38.4,61.2,38.4z"/>
	<path class="st2" d="M74.2,38.4c-1.1,0-2.2-0.3-3-0.8c-0.9-0.5-1.6-1.3-2-2.4c-0.5-1-0.7-2.2-0.7-3.7c0-1.4,0.2-2.6,0.7-3.7
		c0.5-1,1.2-1.8,2-2.3c0.9-0.5,1.9-0.8,3-0.8s2.1,0.3,2.9,0.8s1.4,1.2,1.7,2.1h-0.3V19h3.2v19.1h-3.2v-2.8h0.3
		c-0.3,0.9-0.8,1.7-1.7,2.2S75.3,38.4,74.2,38.4z M75.1,35.9c1,0,1.8-0.4,2.5-1.1c0.6-0.7,0.9-1.8,0.9-3.3s-0.3-2.5-0.9-3.2
		s-1.4-1.1-2.5-1.1c-1,0-1.8,0.4-2.5,1.1c-0.6,0.7-0.9,1.8-0.9,3.2s0.3,2.5,0.9,3.3C73.2,35.5,74.1,35.9,75.1,35.9z"/>
</g>
</svg>
